<svg xmlns="http://www.w3.org/2000/svg" viewBox="0 0 1050 700"><defs><style>.a{fill:#fefefe;}.b{fill:#db0000;}</style></defs><title>morethancomrades</title><path class="a" d="M0,700Q0,350,0,0H1050V700Z"/><path class="b" d="M453.24,278.06l-41.58,27.88-31.94-50.42,95.84-60.67,63.06,33.09-56,31.77,44,67.4c12.5-2,24.82-3.92,37.08-6.1,16.24-2.9,32.65-5.69,47.83-12.18,19.29-8.25,35.31-21.09,44.43-40.54,10.53-22.46,4.58-42.9-10.73-60.69-19-22-43.43-33.07-72.73-32.57-9.95.17-19.35,3-28.68,7.2-3-7.67-5.74-15.11-8.81-22.4A122.68,122.68,0,0,0,517,129.32c-22.14-27-51.37-35.18-85.27-24-19.12,6.29-35.79,16.81-51,29.81-1.64,1.41-3.26,2.85-4.92,4.23a27.53,27.53,0,0,1-2.53,1.56C380,117.13,390.65,97,411.58,84.17c26.87-16.49,55.3-17.43,83.81-5.19,31.08,13.34,50.94,36.65,58,70.21.88,4.18.45,8.59,2.18,13.05,6.11-2.09,11.94-4.44,18.12-5.75,52.34-11.1,106.58,25.82,114.67,78.56,4.46,29.09-5.6,53.35-26.32,73.64-16.63,16.28-37.21,24.8-59.36,30.21-18.33,4.47-37,6.64-55.7,9-1.63.2-3.33.11-5.7,1.67,9.39,14.48,18.7,28.9,28.06,43.28s18.71,28.62,28.37,43.39l-34.85,19.3-62.5-101c-23.12,3.68-45.48,9.07-66.78,17.08-1.66,3.41.29,6.52-1.08,9.68-12.21,2.64-20.19,11.43-27.64,20.7-7.83,9.73-15.2,19.83-22.88,29.68a71.74,71.74,0,0,1-12.73,12.66c-7.72,6-17,6.42-23.45,1.2s-7.85-14.83-3.49-23.35c5.87-11.46,15.51-19.44,25.66-26.84,7.4-5.4,15-10.54,21.9-16.59,7.52-6.6,13.33-14.37,16.59-24.9,10,4.29,15.12-2.69,20.72-9.08,7.91,2,13.58-1.29,18-7.53,1.5-2.1,4.05-1.94,6.4-2.14,11.1-.95,22.19-2,34.83-3.13Z"/><path class="b" d="M882.8,485.33c6.33-2.61,12.3-3.48,18.34-.92,7.48,3.17,12.33,8.65,13.13,16.81.78,7.87-3.21,13.7-9.5,18.06-4.74,3.28-10.22,4.81-15.71,6.18-9.84,2.46-19.74,4.69-29.68,9.78C856.13,520.7,847,508.92,843.28,495c-4-14.83,4-26.69,17.34-27a21,21,0,0,1,20.63,13.64C881.67,482.67,882.12,483.72,882.8,485.33Z"/><path d="M85.87,563.35c-.15-7.11,3.63-14.66,9.08-14.66,3.48,0,6.05,3,5.75,7.33-.3,3.45-1.82,5.39-3.33,7.33-1.36,1.72-2.57,3-2.87,5.39-.61,4.31,3.33,7.54,10.89,7.54,13,0,33.43-13.36,49.32-30.17,13.92-14.44,27.23-33.84,42.21-53.66-7.26-1.94-16.79-3.45-30-3.45-16.49,0-32.37,8.84-35.25,28.23-1.21,8.62.6,19.4,10.29,24.14,1.21.65,2,.43,1.82,1.08s-1.21.86-2.87.22c-8.77-3.66-13.31-14.66-12.56-26.08,1.51-20,15.28-33.19,38.88-31.9,12.56.65,24.2,4.09,31,5.6l2.87-3.88c1.36-1.72,3.33-4.09,4.84-3.88,2.27.43,2,2.16-.15,5.6l-2.12,3.45a53.21,53.21,0,0,0,11,1.08,32.45,32.45,0,0,0,15.58-3.88c5.14-3,8.32-6.46,10.14-9.91,2-3.45.91-4.74,1.66-5.17,1.06-.43,1.21,3,.45,5.39-.91,2.8-2.27,5.82-5.75,10.78-7.26,10.78-18.15,27.59-25.26,40.3-7.87,14-16,29.31-16.19,37.28,0,1.72.76,2.8,2,2.8,2.42,0,6.66-3.23,11.5-8.84,3-3.45,5.6-6.68,7.26-8.84.76-.86,1.36-1.72,1.82-1.08.3.65-.3,1.51-1.36,3-2,2.59-4.69,6-8.47,10.34-3,3.45-8.17,8.41-12.4,8.62-3.78.22-6.66-1.72-6.81-8-.15-7.76,4.69-17.89,11.19-29.74,6.05-11.21,17.4-28.66,25.11-37.93l-.15-.22c-10.14,10.78-20.42,22.84-30.41,35.13-11.5,14.22-20.27,25.43-28.89,37.07-1.81,2.37-2.57,4.31-3.93,2.8-1.21-1.29-.45-4.09.45-5.82,8.77-17.46,23.9-53.45,32.07-67.89l-.15-.22c-5.6,7.76-25.26,35.56-38.73,49.57-15,15.95-35.85,30.6-51.58,30.6C95.4,578.87,86.32,575.64,85.87,563.35ZM205.38,517c8.32-9.7,15.58-17.67,23.45-25.43v-.22c-4.39,2.37-10,3.23-14.52,3.45a74.14,74.14,0,0,1-11.65-1.08c-7.41,15.09-18.3,44-25.72,58C182.84,544.17,194.94,529.08,205.38,517Z"/><path d="M216.72,554.3c-1.06,1.29-1.66,1.72-2,1.29-.3-.65.45-1.72,1.06-2.59a49.66,49.66,0,0,1,4.69-5.39,65.66,65.66,0,0,1,7.26-6.25c4.39-3.23,9.08-5.6,12.56-5.82,1.06,0,2.27,0,2.27.86,0,.43-.45.43-1.66,1.29-3.63,2.37-6.66,6-10.89,11.85-4.39,6.25-8.47,14.66-8.77,19-.15,2.16.45,3.66,2.12,3.66,3.33,0,9.38-5.82,14.07-13.15a22.55,22.55,0,0,1,2.72-9.05,14.24,14.24,0,0,1,4.84-5.6,20,20,0,0,0,.45-5c0-2.37-.6-3-.15-3.45.6-.43,1.51.43,2.12,1.29a11.22,11.22,0,0,1,1.82,7.54c-.45,5.17-3.93,11.42-8.62,17.46a4.39,4.39,0,0,0,2.87,0,13.46,13.46,0,0,0,5.14-3.66,49.49,49.49,0,0,0,4.84-5.6c1.36-1.72,2.12-2.8,2.57-2.16s-.45,1.94-2,3.88a57.51,57.51,0,0,1-4.84,5.6c-2.42,2.37-4.24,3.45-5.75,3.88-1.36.43-3.18.43-4.08-.43-3.93,4.31-11,10.56-17.25,10.56-4.69,0-7.56-3.23-7.41-9.48a28.14,28.14,0,0,1,4.84-13.79l-.15-.22Z"/><path d="M323.37,552.79c.91-1.08,1.36-1.29,1.66-.86.3.65-.15,1.51-1.21,2.8a108.74,108.74,0,0,1-8.93,10.34c-6.35,6-12.4,9.27-17.55,9.27-5.6,0-8.32-3.45-8.32-8.84a25.51,25.51,0,0,1,2.12-9.05,10.56,10.56,0,0,1-4.08-1.72c-3-2.16-4.69-6.47-4.54-10.34a58.36,58.36,0,0,0-6.35,6.68c-4.39,5.39-9.38,12.07-15.28,20.26a4.26,4.26,0,0,1-3.93,1.94c-2.12,0-3.18-.43-2-3.45,1.06-2.8,4.24-9.91,6.66-14.44,1.66-3.23,4.39-8.19,6.05-11.21,1.06-1.94,1.36-3,1.06-3.66-.45-.86-1.36-.43-2.27.22a37.34,37.34,0,0,0-5.9,5.82c-2,2.37-4.39,5.39-6.5,8.19-1.51,1.94-2.12,2.59-2.57,1.94-.3-.65.45-1.72,2.27-4.09s5.14-6.9,7.87-9.91c4.08-4.53,7.11-7.11,10.29-7.11,2.87,0,3.78,2.37,3.78,4.74,0,2.8-1.66,6.25-3.18,9.27-1.21,2.37-3.33,6.25-4.54,8.62l.3.43c1.66-2.37,5.75-8,9.23-12.07a98,98,0,0,1,7.41-8,11.6,11.6,0,0,1,4.54-3,4.16,4.16,0,0,1,3.33.22,2.37,2.37,0,0,1-.6,3.45c-4.39,3.45-5.6,5.82-5.75,7.76-.15,2.16.15,4.53,2.27,6a7.81,7.81,0,0,0,3.33,1.29,43.73,43.73,0,0,1,10.59-12.71c4.39-3.45,9.38-6.25,13.46-6.25,3.18,0,4.69,3,4.54,5.82-.3,5.6-5,10.56-9.68,13.15a26.47,26.47,0,0,1-12.1,3.23,18.79,18.79,0,0,0-2,8.4c0,3,1.21,5,3.48,5,3.33,0,7.72-2.16,13.77-7.76A132.83,132.83,0,0,0,323.37,552.79Zm-14.22-.43a14.22,14.22,0,0,0,6.2-11.42c0-1.51-.45-2.59-1.82-2.59s-3.63,1.94-6.66,5.82a101.73,101.73,0,0,0-7.11,11A15.84,15.84,0,0,0,309.15,552.36Z"/><path d="M349.84,573.91c-3.33,0-4.54-2.8-4.39-6,.3-5.39,4.08-13.79,8-21.34,1.36-2.59,3.63-6.68,4.39-8-2,0-5.14.22-5.45.22-.91,0-1.82,0-1.66-1.08.15-.86,1.82-1.08,4.08-1.29.15,0,3.33-.21,4.24-.21,4.69-8.19,10.89-17.67,14.22-22.41,2.72-3.88,6.35-8.84,9.53-8.84,1.66,0,2.27.65,2.27,1.29-1.82,2.37-5.75,8.41-9.23,14s-6.2,10.34-9.23,15.95c3.33-.22,6.2-.22,8.62-.22,1.82,0,2.27.43,2.12,1.29-.3,1.08-1.51,1.08-2.72,1.08-3.33,0-5.75,0-9.23.22a179.11,179.11,0,0,0-10.89,23.71c-.91,2.37-1.36,5.39-.15,6.25.91.65,2.57,0,3.78-.86A42.89,42.89,0,0,0,365,561.2c2.72-3,5.45-6.46,7.11-8.62.76-.86,1.66-2.16,2.12-1.51.3.43,0,1.08-1.06,2.59a142.69,142.69,0,0,1-9.23,11.42C360.89,568.31,355.74,573.91,349.84,573.91Z"/><path d="M393.71,519.17c8.17-14.22,14.83-22.84,25.41-34.7,8.77-9.48,21.18-21.34,33.28-21.34,12.25,0,19.51,11,18.61,22.84-.15,2.8-1.06,4.74-1.51,4.53-.3-.22.3-1.72.45-4.53.45-9.27-6.66-17.24-18-17.24-14.67,0-23.15,7.54-31.16,17.89-6.35,8.41-15.88,24.14-25.57,42.89-6.66,12.93-13.31,26.29-16.79,33.62l.15.22c3.63-4.31,8.62-10.56,13.92-16.16s12-11.64,16.49-11.64c3.18,0,5,2.16,4.69,5.82-.45,3.88-3.63,8.84-6.05,13.15a85.55,85.55,0,0,0-5,9.48c-1.06,2.59-1.21,4.09-.6,4.74.76.86,2.42,0,3.63-.86a39.86,39.86,0,0,0,7.26-6.68c2.57-2.8,5.6-6.68,7.26-8.84,1.21-1.51,1.66-1.72,2-1.29s-.15,1.29-1.21,2.8c-1.36,1.94-5.9,7.76-9.08,11.21-3,3.23-8.93,8.62-13.61,8.62-3,0-4.69-1.94-4.54-5.6.15-4.74,3.48-10.13,6.35-15.09,2.27-3.88,4.54-7.33,6.35-10.56.6-1.08.91-2.37.15-3s-2.42.21-3.93,1.29a77.88,77.88,0,0,0-11.8,11C384.18,559,380.55,564,373.9,571.33c-1.36,1.51-2.27,1.94-3.93,1.94-2.12,0-3-.43-2-3.45,1.51-4.09,3.63-9.05,6.2-14.44,1.21-2.59,2.72-5.39,4.54-8.62v-.22c-2.27,2.8-4.08,5.17-5.75,7.33-.91,1.08-1.36,1.29-1.66.65-.15-.65.3-1.29.76-1.94.6-.86,6.35-8,9.83-12.07C384.33,536,390.08,525.42,393.71,519.17Z"/><path d="M458.31,535.55c3.18-.21,3.48.86,2,3.45-2,3.23-5.29,8.62-8.47,14.22a86,86,0,0,0-5.29,10.56c-1.06,2.59-1.06,4.31-.45,5,.76.86,2.27,0,3.48-.86a50.07,50.07,0,0,0,6.81-6.68c3.18-3.66,5.6-6.68,7.26-8.84.91-1.08,1.66-2.16,2.12-1.51s-.3,1.72-2,3.88c-2,2.59-5.6,7.11-8.47,10.34-3,3.45-8,8.62-13,8.62-2.87,0-4.24-1.94-4.39-4.53a15,15,0,0,1,2.12-7.76l-.15-.22c-3.93,5-10.89,12.07-16.64,12.5-3.33.22-6.81-1.72-6.2-8.62.3-3.23,1.51-6.68,4.24-11.21l-.15-.22-2,2.59c-.6.65-1.06,1.08-1.36.65-.3-.65.45-1.94,2.12-4.1a68.1,68.1,0,0,1,4.54-5.17,69.19,69.19,0,0,1,7-6c5.9-4.31,11.19-6.9,15.13-6,3,.65,4.08,4.53,3.18,8.19C453.31,538.35,455.89,535.55,458.31,535.55ZM432,551.28c-6.2,8.62-8.77,14.22-8.47,17,.15,1.51.91,2.16,2,2.16,2.87,0,8.62-4.74,12.71-10.13,4.84-6,10.29-15.3,10.44-18.75.15-2.8-1.06-3.88-2.72-3.88C442.88,537.71,437.43,543.52,432,551.28Z"/><path d="M490.37,568.09c.15-4.74,3.48-10.13,6.35-15.09l6.35-10.56c.6-1.08.91-2.37.15-3s-2.42.21-3.93,1.29a77.85,77.85,0,0,0-11.8,11c-6.66,7.33-10.29,12.28-16.94,19.61-1.36,1.51-2.27,1.94-3.93,1.94-2.12,0-3.18-.43-2-3.45,1.06-2.8,4.24-9.91,6.66-14.44l6.05-11.21c1.06-1.94,1.36-3,1.06-3.66-.45-.86-1.36-.43-2.27.22a37.32,37.32,0,0,0-5.9,5.82l-6.5,8.19c-1.51,1.94-2.12,2.59-2.57,1.94-.3-.65.45-1.72,2.27-4.09s5.14-6.9,7.87-9.91c4.08-4.53,7.11-7.11,10.29-7.11,2.87,0,3.78,2.37,3.78,4.74,0,2.59-1.21,5.39-3.18,9.27-2.27,4.31-5.45,10.13-7.11,13.58l.15.22c3.63-4.31,8.62-10.56,13.92-16.16s12-11.64,16.49-11.64c3.18,0,5,2.16,4.69,5.82-.45,3.88-3.63,8.84-6.05,13.15a99.92,99.92,0,0,0-5,9.48c-1.21,2.8-1.21,4.09-.6,4.74.76.86,2.42,0,3.63-.86a43.31,43.31,0,0,0,7.26-6.68c2.57-2.8,5.6-6.68,7.26-8.84,1.21-1.51,1.66-1.72,2-1.29s-.15,1.29-1.21,2.8c-1.36,1.94-5.9,7.76-9.08,11.21-3,3.23-8.93,8.62-13.61,8.62C492,573.7,490.22,571.76,490.37,568.09Z"/><path d="M554.06,546.76c-4.08,5.82-8,14-8.47,19.18-.3,3.23,1.06,5,3.48,5,2,0,7.26-1.29,13.92-7.76a130.6,130.6,0,0,0,9.08-10.34c.91-1.08,1.36-1.29,1.66-.86.3.65-.15,1.51-1.21,2.8a108.88,108.88,0,0,1-8.93,10.34c-5.29,5.17-12.4,9.27-17.55,9.27-5.75,0-8.47-3.23-8.17-9.05.3-6.68,4.39-14.22,8-18.32,4.54-5.6,13.77-12.72,19.36-11.42,3.48.86,4.69,4.09,4.08,8.19s-3.18,7.33-5.14,7.33c-2.57,0-2.57-3-1.21-6.25,1.66-4.09,2.27-6.68.45-7.11C561.77,537.27,558.3,540.51,554.06,546.76Z"/><path d="M572.82,554.3c-1.06,1.29-1.66,1.72-2,1.29-.3-.65.45-1.72,1.06-2.59a49.77,49.77,0,0,1,4.69-5.39,65.71,65.71,0,0,1,7.26-6.25c4.39-3.23,9.08-5.6,12.56-5.82,1.06,0,2.27,0,2.27.86,0,.43-.45.43-1.66,1.29-3.63,2.37-6.66,6-10.89,11.85-4.39,6.25-8.47,14.66-8.77,19-.15,2.16.45,3.66,2.12,3.66,3.33,0,9.38-5.82,14.07-13.15a22.54,22.54,0,0,1,2.72-9.05,14.24,14.24,0,0,1,4.84-5.6,20,20,0,0,0,.45-5c0-2.37-.61-3-.15-3.45.61-.43,1.51.43,2.12,1.29a11.23,11.23,0,0,1,1.82,7.54c-.45,5.17-3.93,11.42-8.62,17.46a4.39,4.39,0,0,0,2.87,0,13.47,13.47,0,0,0,5.14-3.66,49.44,49.44,0,0,0,4.84-5.6c1.36-1.72,2.12-2.8,2.57-2.16s-.45,1.94-2,3.88a57.78,57.78,0,0,1-4.84,5.6c-2.42,2.37-4.24,3.45-5.75,3.88-1.36.43-3.18.43-4.08-.43-3.93,4.31-11,10.56-17.25,10.56-4.69,0-7.56-3.23-7.41-9.48a28.15,28.15,0,0,1,4.84-13.79l-.15-.22Z"/><path d="M628,535.55c2.87,0,3.78,2.37,3.78,4.74,0,2.59-1.21,5.39-3.18,9.27-2.27,4.31-5.45,10.13-7.11,13.58l.15.22c3.63-4.31,8.62-10.56,13.92-16.16s12-11.64,16.34-11.64c3.78,0,5.29,2.59,4.84,6.25-.45,3.45-3.33,8-5.9,12.29s-4.08,6.9-5.45,9.48l.15.22c3.48-4.31,8.92-11,14.22-16.59s12-11.64,16.49-11.64c3.33,0,5,2.37,4.69,5.82-.45,3.88-3.63,8.84-6.05,13.15-2.42,4.09-4.08,7.54-5,9.48-1.21,2.59-1.21,4.09-.61,4.74.76.86,2.42,0,3.63-.86a43.28,43.28,0,0,0,7.26-6.68c2.57-2.8,5.6-6.68,7.26-8.84.91-1.08,1.51-1.94,2-1.29.3.43-.15,1.29-1.21,2.8-1.36,1.94-5.9,7.76-9.08,11.21-3,3.23-8.92,8.62-13.61,8.62-3,0-4.69-1.94-4.54-5.6.15-5,3.78-10.56,6.35-15.09l6.35-10.56c.6-1.08.91-2.37.15-3s-2.42.21-3.93,1.29a77.87,77.87,0,0,0-11.8,11c-6.66,7.33-10.29,12.28-16.94,19.61a4.75,4.75,0,0,1-3.93,1.94c-2.42,0-2.87-.65-2-3.45a115.76,115.76,0,0,1,8-16.81c2.57-4.53,5.29-8.41,6.35-10.56.61-1.08.76-2.59-.15-3s-2.12.21-3.78,1.29a75,75,0,0,0-11.8,11C627.27,559,623.64,564,617,571.33c-1.36,1.51-2.27,1.94-3.93,1.94-2.12,0-3.18-.43-2-3.45,1.06-2.8,4.39-9.91,6.66-14.44s4.39-8.19,6.05-11.21c1.06-1.94,1.36-3,1.06-3.66-.45-.86-1.36-.43-2.27.22a37.32,37.32,0,0,0-5.9,5.82l-6.5,8.19c-1.51,1.94-2.12,2.59-2.57,1.94-.3-.65.45-1.72,2.27-4.09s5.14-6.9,7.87-9.91C621.83,538.14,624.85,535.55,628,535.55Z"/><path d="M706.39,554.3a64.94,64.94,0,0,0-5.14,10.13c-.76,1.94-.76,3.45-.15,4.09s1.66.43,3.33-.86a50.59,50.59,0,0,0,6.81-6.47c3.33-3.66,5.14-5.82,7.11-8.41,1.06-1.51,2-2.15,2.27-1.72.45.65-.6,1.94-1.81,3.66C717,557.1,714,561,710.17,565.08c-3.18,3.45-8.47,8.62-13.46,8.62-3.18,0-4.84-2.37-4.69-5.6.15-4.74,3.93-10.78,7.26-15.3,3.63-5,9.38-10.78,9.83-12.28.6-2.37-2.27-1.72-6.05-1.72a7.79,7.79,0,0,1-3.48-.43c-1.21,1.94-3.33,5-5.75,8.19l-6.05,8c-1.36,1.72-2,2.16-2.27,1.72s.15-1.51,1.66-3.45l5.9-7.76c2.12-2.8,4.08-5.6,5.29-7.54-1.36-1.29-1.51-4.31,0-6.9a6.74,6.74,0,0,1,5.75-3.66,2.72,2.72,0,0,1,2.72,2.16,20.57,20.57,0,0,0-2.57,3c-2,3-1.51,4.53.45,4.74,4.24.21,8.62.43,8.62,4.31C713.35,544.39,709.72,548.7,706.39,554.3Z"/><path d="M756.77,535.55c3.18-.21,3.48.86,2,3.45-2,3.23-5.29,8.62-8.47,14.22A86.09,86.09,0,0,0,745,563.78c-1.06,2.59-1.06,4.31-.45,5,.76.86,2.27,0,3.48-.86a50.09,50.09,0,0,0,6.81-6.68c3.18-3.66,5.6-6.68,7.26-8.84.91-1.08,1.66-2.16,2.12-1.51s-.3,1.72-2,3.88c-2,2.59-5.6,7.11-8.47,10.34-3,3.45-8,8.62-13,8.62-2.87,0-4.24-1.94-4.39-4.53a15,15,0,0,1,2.12-7.76l-.15-.22c-3.93,5-10.89,12.07-16.64,12.5-3.33.22-6.81-1.72-6.2-8.62.3-3.23,1.51-6.68,4.24-11.21l-.15-.22-2,2.59c-.61.65-1.06,1.08-1.36.65-.3-.65.45-1.94,2.12-4.1a68.07,68.07,0,0,1,4.54-5.17,69.2,69.2,0,0,1,7-6c5.9-4.31,11.19-6.9,15.13-6,3,.65,4.08,4.53,3.18,8.19C751.77,538.35,754.35,535.55,756.77,535.55Zm-26.32,15.73c-6.2,8.62-8.77,14.22-8.47,17,.15,1.51.91,2.16,2,2.16,2.87,0,8.62-4.74,12.71-10.13,4.84-6,10.29-15.3,10.44-18.75.15-2.8-1.06-3.88-2.72-3.88C741.34,537.71,735.89,543.52,730.44,551.28Z"/><path d="M788.38,563.78c-1.06,2.59-1.06,4.31-.45,5,.76.86,2.27,0,3.48-.86a50.09,50.09,0,0,0,6.81-6.68c3.18-3.66,5.6-6.68,7.26-8.84.91-1.08,1.66-2.16,2.12-1.51s-.3,1.72-2,3.88c-2,2.59-5.6,7.11-8.47,10.34-3,3.45-8,8.62-13,8.62-2.87,0-4.24-1.94-4.39-4.53a15,15,0,0,1,2.12-7.76l-.15-.22c-3.93,5-10.89,12.07-16.64,12.5-3.33.22-6.81-1.72-6.2-8.62.3-3.23,1.51-6.68,4.24-11.21l-.15-.22c-.45.65-1.06,1.51-2,2.59-.61.65-1.06,1.08-1.36.65-.3-.65.76-2.37,2.42-4.53a61.12,61.12,0,0,1,4.24-4.74,55.45,55.45,0,0,1,7-6c5.29-3.88,10.89-6.9,15.13-6,2.87.65,3.93,4.09,3.33,7.33h.15c2.87-5.82,8.92-17.24,12.71-23.71A191.7,191.7,0,0,1,830,484.47c8.77-9.48,21.18-21.34,33.28-21.34,12.25,0,19.51,11,18.61,22.84-.15,2.8-1.06,4.74-1.51,4.53-.3-.22.3-1.72.45-4.53.45-9.27-6.66-17.24-18-17.24-14.67,0-23.15,7.54-31.16,17.89-6.35,8.41-15.88,25-30.71,52.37C796.25,547.62,789.74,560.33,788.38,563.78Zm-14.52-12.5c-6.2,8.62-8.77,14.22-8.47,17,.15,1.51.91,2.16,2,2.16,2.87,0,8.62-4.74,12.71-10.13,4.84-6,10.29-15.3,10.44-18.75.15-2.8-1.06-3.88-2.72-3.88C784.75,537.71,779.3,543.52,773.86,551.28Z"/><path d="M828.32,563.14a111.56,111.56,0,0,0,9.23-10.34c.91-1.08,1.36-1.29,1.66-.86.3.65-.3,1.51-1.21,2.8a121.85,121.85,0,0,1-9.53,10.78c-6.35,6-12,8.84-17.09,8.84-5.6,0-8.17-3-8-8.62.15-4.31,1.51-8.19,4.54-13.36l-.15-.22-3,3.88c-.76.86-1.21,1.08-1.51.65-.3-.65.3-1.51.91-2.37a66,66,0,0,1,5.6-6.46,68,68,0,0,1,7.41-6.47c4.39-3.23,8.92-6,13-6,3.48,0,4.69,3,4.54,5.82-.3,5.6-5.14,9.91-9.68,13.15a65.54,65.54,0,0,1-13,6.9,16.34,16.34,0,0,0-.91,5c0,3.23,1.21,5,3.48,5C816.52,571.11,821.66,569.6,828.32,563.14Zm-5.14-10.78c3.78-3.66,6.05-8.19,6.2-11.21.15-1.94-.45-3-1.82-3s-3.63,2.16-6.66,6.25a86.43,86.43,0,0,0-8,14.44A31.65,31.65,0,0,0,823.17,552.36Z"/><path d="M846.17,551.71c-.61.43-1.21.86-1.51.22-.15-.65,0-1.08.76-1.72a80.45,80.45,0,0,0,6.35-6c2.72-2.8,5.45-6,8.93-10.34a12.53,12.53,0,0,1,2.42-3.66,6.72,6.72,0,0,1,4.39-2.37c3.48,0,1.21,2.8-.76,4.53-1.36,1.29-2.87,2.16-3.63,3.23-1.21,1.72-1.06,3.45-1.06,5.82.15,6,.45,11.64-1.36,17.67a26.31,26.31,0,0,1-4.84,8.84c-4.08,5-8.47,6.46-13.16,6.46-7.87,0-9.53-6.9-8.92-12.93.6-6.25,4.08-11.42,7.71-11.21,2.12.22,3.18,2.37,2.87,4.74a7.93,7.93,0,0,1-3.33,5.39,9.32,9.32,0,0,0-3.48,6.47c-.15,3.45,1.66,5.39,4.39,5.39,3,0,6.81-3.45,10.14-11.64,2.72-6.25,5.45-19.18,7.11-22v-.22a78.46,78.46,0,0,1-7.26,8.19A55.09,55.09,0,0,1,846.17,551.71Z"/></svg>